<svg width="24" height="24" viewBox="0 0 24 24" fill="none" xmlns="http://www.w3.org/2000/svg">
  <path d="M12 8.2A3.8 3.8 0 1 0 12 15.8A3.8 3.8 0 1 0 12 8.2Z" stroke="currentColor" stroke-width="1.8"/>
  <path d="M4.5 12L6.4 11.6C6.6 11 6.9 10.5 7.2 10L6.2 8.3L8 6.5L9.7 7.5C10.2 7.2 10.7 6.9 11.3 6.7L11.7 4.8H14.3L14.7 6.7C15.3 6.9 15.8 7.2 16.3 7.5L18 6.5L19.8 8.3L18.8 10C19.1 10.5 19.4 11 19.6 11.6L21.5 12L19.6 12.4C19.4 13 19.1 13.5 18.8 14L19.8 15.7L18 17.5L16.3 16.5C15.8 16.8 15.3 17.1 14.7 17.3L14.3 19.2H11.7L11.3 17.3C10.7 17.1 10.2 16.8 9.7 16.5L8 17.5L6.2 15.7L7.2 14C6.9 13.5 6.6 13 6.4 12.4L4.5 12Z" stroke="currentColor" stroke-width="1.2" stroke-linejoin="round"/>
</svg>
